# xmcd
#
# Track frame offsets:
#	150
#	11752
#	29875
#	55627
#	70652
#	83292
#	119200
#	139890
#	157662
#	185202
#	202947
#
# Disc length: 3093 seconds
#
# Revision: 0
# Processed by: cddbd v1.5PL3 Copyright (c) Steve Scherf et al.
# Submitted via: dBpowerAMP V4.0
#
DISCID=930c130b
DTITLE=Jimmy Lee Smith - You Keep Sayin' You're Leavin' - I'm Already Gone!!!
DYEAR=2000
DGENRE=Blues
TTITLE0=Chicken Scratch
TTITLE1=Rain Song
TTITLE2=Don't Drive Me Crazy
TTITLE3=Keep Sayin' You're Leavin'
TTITLE4=Love to Love You
TTITLE5=Ain't Your Fool
TTITLE6=Don't Break My Heart
TTITLE7=Does Your Mama Know
TTITLE8=6th Street
TTITLE9=Ain't Your Hound Dog
TTITLE10=Brown Whisky
EXTD=
EXTT0=
EXTT1=
EXTT2=
EXTT3=
EXTT4=
EXTT5=
EXTT6=
EXTT7=
EXTT8=
EXTT9=
EXTT10=
PLAYORDER=
